# xmcd CD database file
#
# Track frame offsets:
#	150
#	20141
#	38063
#	58043
#	87223
#
# Disc length: 1449 seconds
#
# Revision: 0
# Processed by: cddbd v1.5.1PL0 Copyright (c) Steve Scherf et al.
# Submitted via: CDex 1.51
#
DISCID=3905a705
DTITLE=上原奈美 - IAM
DYEAR=2005
DGENRE=JPop
TTITLE0=IAM
TTITLE1=BALANCE
TTITLE2=IAM (Original Karaoke)
TTITLE3=BALANCE (Original Karaoke)
TTITLE4=CD Extra
EXTD=YEAR: 2005
EXTT0=
EXTT1=
EXTT2=
EXTT3=
EXTT4=
PLAYORDER=
